<?xml version="1.0" encoding="utf-8"?>
<!-- Generator: Adobe Illustrator 24.2.3, SVG Export Plug-In . SVG Version: 6.00 Build 0)  -->
<svg version="1.1" id="Layer_1" xmlns="http://www.w3.org/2000/svg" xmlns:xlink="http://www.w3.org/1999/xlink" x="0px" y="0px"
	 viewBox="0 0 1869.5 925.6" style="enable-background:new 0 0 1869.5 925.6;" xml:space="preserve">
<style type="text/css">
	.st0{fill:url(#SVGID_1_);}
	.st1{fill:url(#SVGID_2_);}
	.st2{fill:url(#SVGID_3_);}
	.st3{fill:url(#SVGID_4_);}
	.st4{fill:url(#SVGID_5_);}
	.st5{fill:url(#SVGID_6_);}
	.st6{fill:url(#SVGID_7_);}
	.st7{fill:url(#SVGID_8_);}
	.st8{fill:#FFE77F;}
</style>
<g id="Layer_2_1_">
	<g id="Layer_1-2">
		
			<linearGradient id="SVGID_1_" gradientUnits="userSpaceOnUse" x1="156.4071" y1="43.94" x2="156.4071" y2="896.1005" gradientTransform="matrix(1 0 0 -1 0 928)">
			<stop  offset="3.000000e-02" style="stop-color:#FF6472"/>
			<stop  offset="0.27" style="stop-color:#FF816C;stop-opacity:0.94"/>
			<stop  offset="0.73" style="stop-color:#FFAD62;stop-opacity:0.84"/>
			<stop  offset="1" style="stop-color:#FFBD5E;stop-opacity:0.8"/>
		</linearGradient>
		<path class="st0" d="M155.3,31.9c44.6-0.7,78.8,35.8,101.3,70.3c36,55.3,64.9,139.4,53.8,205c-12,70.6-34.2,143.7-71.6,206.1
			c-22.9,38.2-55.3,74-101.5,81.2c-9,1.5-13.5,2.2-22.7,3.8c-14.9,4.1-18.1,27.8-19.6,40.1C85.8,706.7,78.1,775,73.1,843.6
			c-0.6,9.7-0.8,37.6-15,39.8c-15.7,0.2-31.4,0.4-47.1,0.7c-13-3.2-11.3-26.2-10.4-36.2C16.4,588.9,32.2,329.9,48,71
			c1-10.8,1-34.5,15-37.9C93.8,32.6,124.6,32.2,155.3,31.9z M170.8,392.4c40.1-3.2,45.8-48.8,49.9-81.4c3.8-30.6,1-77.7-39.3-75.8
			c-9.8,0.4-19.6,0.7-29.4,1.2c-15.3,1.1-16.7,24.7-16.3,35.7c0,30.1-3.1,59.4-6.4,89.3c-1.4,9.1-3,34.8,12.4,33.7
			C151.4,394.2,161.1,393.3,170.8,392.4z"/>
		
			<linearGradient id="SVGID_2_" gradientUnits="userSpaceOnUse" x1="333.3207" y1="46.23" x2="333.3207" y2="897.53" gradientTransform="matrix(1 0 0 -1 0 928)">
			<stop  offset="3.000000e-02" style="stop-color:#FF6472"/>
			<stop  offset="0.27" style="stop-color:#FF816C;stop-opacity:0.94"/>
			<stop  offset="0.73" style="stop-color:#FFAD62;stop-opacity:0.84"/>
			<stop  offset="1" style="stop-color:#FFBD5E;stop-opacity:0.8"/>
		</linearGradient>
		<path class="st1" d="M343.6,30.5c15.5,2.4,25.7,26,31.1,38c35.4,80.3,64.5,175.6,43.1,263.1c-21.5,88-52.2,173.9-77.4,260.9
			c-2.1,8.3-11.4,34.4,1.4,38.3c28.3-2.1,56.7-3.8,85-5.1c12.5,3.3,3.1,32.7,1.8,39.7c-10.7,54.8-14.8,110.6-12.2,166.3
			c0.5,11.4,6.8,44.3-7.7,49.8c-54.3,0-108.7,0.1-163,0.3c-14.8-3.8-11.9-35.1-11.8-45.3c6.5-139.7,45.1-273.7,79.8-408.4
			c13-50.5,32.4-105.9,29-158.3C338.1,200.6,323.5,133.3,300,68c-2.5-7.3-15-33.3-2.6-37.3L343.6,30.5z"/>
		
			<linearGradient id="SVGID_3_" gradientUnits="userSpaceOnUse" x1="605.1631" y1="45.41" x2="605.1631" y2="898.07" gradientTransform="matrix(1 0 0 -1 0 928)">
			<stop  offset="3.000000e-02" style="stop-color:#FF6472"/>
			<stop  offset="0.27" style="stop-color:#FF816C;stop-opacity:0.94"/>
			<stop  offset="0.73" style="stop-color:#FFAD62;stop-opacity:0.84"/>
			<stop  offset="1" style="stop-color:#FFBD5E;stop-opacity:0.8"/>
		</linearGradient>
		<path class="st2" d="M679.1,29.9c17.6,3.1,32.3,30.4,40.2,44.1c25.1,44.5,45.3,91.6,50.7,142.9c0.4,8.3,3.2,30.9-9.6,32.8
			c-31.9-2.5-63.9-5-95.8-7.1c-12.7,1.5-11.6,21.8-12.3,31c-0.6,11.1-2,22.2-4,33.1c-2.1,7.9-8.8,27.9,2.6,31.5
			c19.6,1.3,39.2,2.7,58.8,4.3c12,3.2,1.7,24.6-0.6,30.7c-16.8,38.2-36.4,75-55,112.3c-4.9,10.1-12.8,28.7-25.6,31.1
			c-18.2-0.9-36.5-1.7-54.7-2.2c-12.9,1.6-20.5,22.7-24.1,32.7c-4.8,12.6-9.4,25.3-13.6,38.1c-2.4,8.3-12.1,32.5-0.5,37.7
			c28.2,0,56.5-0.2,84.6,1.5c11.7,4.5,4.2,31.3,3.1,39.1c-7.5,56.3-4.5,111.2,6.4,166.9c2.1,10.4,14.6,45.8,1,52
			c-57.3-1.2-114.7-0.9-172-1.1c-15.8-4-17-38.2-17.8-50.3c-4.8-82,5.4-164.2,30.2-242.6c17.7-56.6,41-111.1,63.7-166
			c19.5-47.2,44-99,43.9-150.9c-0.1-72-23.1-138.7-57.1-201.5c-3.1-5.6-23.6-35.1-12.3-40.3C566,29.9,622.5,30.2,679.1,29.9z"/>
		
			<linearGradient id="SVGID_4_" gradientUnits="userSpaceOnUse" x1="806.9301" y1="39.97" x2="806.9301" y2="928.0011" gradientTransform="matrix(1 0 0 -1 0 928)">
			<stop  offset="3.000000e-02" style="stop-color:#FF6472"/>
			<stop  offset="0.27" style="stop-color:#FF816C;stop-opacity:0.94"/>
			<stop  offset="0.73" style="stop-color:#FFAD62;stop-opacity:0.84"/>
			<stop  offset="1" style="stop-color:#FFBD5E;stop-opacity:0.8"/>
		</linearGradient>
		<path class="st3" d="M851,832.4c3.7,10.1,23.4,47.3,11.4,55.6l-46.2-1.1c-17.9-4.9-26.3-35.6-31.3-50.8
			c-13.2-42.3-21.7-84.7-23.6-129c-0.4-9.5,2.4-35.5-9.7-40.3c-10.1-0.9-20.2-1.7-30.3-2.6c-13.6,3.5-12.3,28.5-12.8,39
			c0.2,44.7,6.9,87.7,18.4,130.8c2.6,9.6,17.6,44.8,4.5,51c-15.4-0.4-30.8-0.7-46.2-1c-18.8-5.8-24.4-43.2-28.2-59
			c-19.3-96.8-12.5-193.1,26.8-283.9c31.4-72.5,75.9-138.7,101.3-213.9c22.2-65.9,15.2-137.4,0.1-203.9C779.2,97,742,0.3,796.1,0
			c63.7-0.3,118,78.5,142.1,128.7c31.6,66.1,40,148.8,12.4,217.9c-29.8,73.4-75.5,138.9-105.5,212.2C809,646.7,820.5,745,851,832.4z
			 M893.9,339.6c5.8-16.4,23.5-78.4-10-81.3c-28.1-2.5-33.2,57.7-39.2,75.4c-13.8,37.5-31.9,72.8-50.8,108
			c-3.8,7.6-15.2,24.1-6.2,30.9c9.3,1.1,18.7,2.3,28,3.5c12.7-2.5,21-19.2,26.4-29.3C861.1,411.9,879.4,376.8,893.9,339.6
			L893.9,339.6z"/>
		
			<linearGradient id="SVGID_5_" gradientUnits="userSpaceOnUse" x1="1006.3847" y1="11.3056" x2="1006.3847" y2="927.8207" gradientTransform="matrix(1 0 0 -1 0 928)">
			<stop  offset="3.000000e-02" style="stop-color:#FF6472"/>
			<stop  offset="0.27" style="stop-color:#FF816C;stop-opacity:0.94"/>
			<stop  offset="0.73" style="stop-color:#FFAD62;stop-opacity:0.84"/>
			<stop  offset="1" style="stop-color:#FFBD5E;stop-opacity:0.8"/>
		</linearGradient>
		<path class="st4" d="M1091.5,369.8c-12.4,2-1.7-22.6-0.3-28.4c4-16.1,13.9-80.7-12.8-82.7c-17.5-1.3-26,41-28.5,53.8
			c-7.3,38.2,8.5,71.6,14.5,109.1c11.9,74.3-23.5,148.1-29.1,221.1c-3.6,46.1-1.8,92.5,5.3,138.2c4.3,27.8,38.9,137.8-16.6,135.9
			c-62.5-2.1-116.8-77.8-142.6-127.2c-28.6-54.8-41.3-119.3-29.6-178.6c2.5-12.5,5.5-28.6,18-35.6c15.8-7.2,31.7-14.2,47.6-21
			c12.7-1.6,1.9,23.7,0.7,28.4c-5.2,19.7-12.1,86.5,19.2,89.9c23,2.5,30.8-44.9,32.7-61c4.6-38.1-12-66.9-19.5-103.7
			C935.7,436,980.9,362,992.5,293.5c8.1-48.1,10.2-97,7.4-146.1c-1.6-27.8-26.9-147,23.8-147.2c58.1-0.3,102.6,82.7,120.3,127.9
			c22.2,57.1,27.2,119.4,14.4,179.4c-2.8,13.3-7.6,30.1-19.4,38.3C1123.4,354.3,1107.5,362.1,1091.5,369.8z"/>
		
			<linearGradient id="SVGID_6_" gradientUnits="userSpaceOnUse" x1="1217.2498" y1="2.4312" x2="1217.2498" y2="903.58" gradientTransform="matrix(1 0 0 -1 0 928)">
			<stop  offset="3.000000e-02" style="stop-color:#FF6472"/>
			<stop  offset="0.27" style="stop-color:#FF816C;stop-opacity:0.94"/>
			<stop  offset="0.73" style="stop-color:#FFAD62;stop-opacity:0.84"/>
			<stop  offset="1" style="stop-color:#FFBD5E;stop-opacity:0.8"/>
		</linearGradient>
		<path class="st5" d="M1223,27.4c16.8,5.4,22.2,38.8,25,53.2c17.5,93.4,12.4,185.2-19.4,274.9c-25,70.5-62.6,135.7-87.3,206.3
			c-8.3,26.1-36.9,130.7,16.2,135.2c18.8,1.6,22.5-20.6,24.8-34.6c5.3-32.6,9.5-63.7,18.9-95.6c22.7-71.4,57.2-138.2,80.9-209.3
			c30.3-91.2,38.5-183.6,24.4-278.7c-1.8-11.4-12.2-45.5,0.7-53.1l43.3-1.1c16.4,3.5,18.2,39.5,20,51.6
			c11.8,107.9-4.2,210-37.9,312.5c-26,78.9-63.8,156-74.7,239c-0.3,56.4,8.4,111.8,21.9,166.5c6.1,24.5,49.6,133.6-4.7,131.5
			c-34.5-1.3-68.6-25.7-94.4-46.9c-33-27-61-59.6-82.9-96.1c-31.1-52.5-44.9-112.5-34.2-172.9c18.8-81.2,64.5-152,96.4-228.2
			c40.6-97,45.8-199,22.8-301.2c-2.5-10.5-15.9-45-3.5-52.5L1223,27.4z"/>
		
			<linearGradient id="SVGID_7_" gradientUnits="userSpaceOnUse" x1="1460.1503" y1="21.03" x2="1460.1503" y2="907.852" gradientTransform="matrix(1 0 0 -1 0 928)">
			<stop  offset="3.000000e-02" style="stop-color:#FF6472"/>
			<stop  offset="0.27" style="stop-color:#FF816C;stop-opacity:0.94"/>
			<stop  offset="0.73" style="stop-color:#FFAD62;stop-opacity:0.84"/>
			<stop  offset="1" style="stop-color:#FFBD5E;stop-opacity:0.8"/>
		</linearGradient>
		<path class="st6" d="M1598.5,838c5.2,9.1,36.7,62.8,17.2,68.9c-16.6-0.4-33.2-0.7-49.8-1.1c-9.1-3-15.5-11.2-20.8-18.8
			c-54.5-75-102.2-154-133.4-241.6c-1.4-3.3-3-5.5-4.4-5.6c-7.4-0.2-11.1-0.3-18.5-0.5c-13.7,3-10.6,23.4-9.6,33.5
			c12.1,67.6,37.1,129.6,71.1,189.2c3.3,6,23.3,34.9,12.7,41.3l-48.4-1.2c-18.1-4.5-33-28.5-42.1-43.1
			c-37.8-62.5-66.2-129.3-73.3-202.5c-5.3-54.6,15.2-109.8,32.2-161c18.3-55,37.4-109.6,52.3-165.6c22.1-82.7,29.6-168.6,22.2-253.9
			c-0.9-10.8-8.1-45.9,4.7-53.4c28.3-0.8,56.7-1.7,85-2.6c46.4-1.5,68.7,52.2,78.1,89.3c21,83,6.5,168.8-5.5,251.3
			c-11.1,76.1-26,165.3-71.8,230c-2.4,3.5-3.6,9.2-3.2,14.9c4.9,40.1,22.8,76.6,40.2,112.8C1552.9,759.5,1575.1,799.1,1598.5,838z
			 M1468.8,282.1c-13.5,5.5-17.3,30.4-20.6,42.6c-7.3,29.9-14.7,59.8-22.7,89.5c-1.9,8.7-9.3,30.4,3,34.6c8.4-0.3,12.6-0.4,21.1-0.8
			c36.2-0.7,42.4-54.6,47.5-80.4c2.6-13,26.4-92.9-9.2-87C1480.2,281.2,1476.4,281.5,1468.8,282.1z"/>
		
			<linearGradient id="SVGID_8_" gradientUnits="userSpaceOnUse" x1="1724.3136" y1="16.8" x2="1724.3136" y2="919.77" gradientTransform="matrix(1 0 0 -1 0 928)">
			<stop  offset="3.000000e-02" style="stop-color:#FF6472"/>
			<stop  offset="0.27" style="stop-color:#FF816C;stop-opacity:0.94"/>
			<stop  offset="0.73" style="stop-color:#FFAD62;stop-opacity:0.84"/>
			<stop  offset="1" style="stop-color:#FFBD5E;stop-opacity:0.8"/>
		</linearGradient>
		<path class="st7" d="M1807.4,8.2c14,2.6,13.3,28.2,14.2,38.1l8.3,144.5c0.3,12.3,2.8,35.7-11.9,41.6
			c-36.4,7.2-72.9,13.9-109.4,20.1c-14.3,4.6-15.3,31.1-16.2,42.5c-1.2,14-2.8,28.1-3.4,42.1c-0.7,8.5-2.2,36,12.3,35
			c25.6-3.9,51.2-8.1,76.7-12.6c16.2-1.1,15.7,25.5,16.3,35.4c1.1,47.4,2.3,94.8,3.5,142.2c-0.2,12.4,0.5,37.1-16.7,39.6
			c-29.6,2.4-59.2,4.6-88.8,6.5c-16.4,1.7-16.8,25.8-17.5,37.7c-0.6,12.8,2.2,25.8,4.1,38.4c1.4,12,6.7,35.1,22.2,35.7
			c46.5-1.1,93-2.8,139.4-5c17.6-0.4,19.7,25.7,20.2,37.8l8.3,144.7c0.2,9.8,3.6,36.1-11.2,38.6c-61.9-0.8-123.9-1.9-185.8-3.1
			c-15.5-3-25.1-26.5-30.2-39c-27-66.1-46.7-134.8-58.9-205.1c-10-57.9,1.5-118.7,8.7-176.5c17.7-141.5,42.2-282.8,39.8-425.8
			c-0.1-9.5-4.1-42.3,9.8-46.5C1696.7,13,1752,10.7,1807.4,8.2z"/>
		<path class="st8" d="M458.3,392.1c8.1,0,13.7,1.9,16,5.8c5.1,8.6,6.4,12.9,7.7,21.2c0.5,3.5-3.7,5.6-12.4,5.6
			c-37.2,0-74.5,0.1-111.7,0.2c-8.6,0-13.8,1.9-14.3,5.7c-0.1,2-0.5,4.1-1.1,6c-1.3,3.6,3,5.6,11.7,5.6c24.7-0.2,49.4-0.3,74.1-0.4
			c8.8,0,12.4,1.8,10.5,5.5c-4.2,8.3-6.7,12.5-11.3,20.8c-2,3.5-7.3,5.6-15.8,5.7c-23.7,0.2-47.5,0.4-71.2,0.7
			c-8.3,0.1-14,2-15.5,5.8c-5.9,13-11.1,26.3-15.6,39.9c-1.1,3.8-5.8,6-14.2,6h-49.8c-8,0-12.1-2.1-11-5.7
			c11.9-40.7,23.8-81.4,35.6-122.2c1.1-3.8,6.1-5.7,13.9-5.8C342,392.4,400.2,392.2,458.3,392.1z"/>
		<path class="st8" d="M551.2,391.9c8.1,0,14.3,2,17.6,5.9c15.4,23.8,13,36.9-2.3,59.6c-13.7,20.4-27.8,37.9-31.6,62.8
			c0,4.1-3.8,6.5-12.1,6.5l-46.1-0.1c-8,0-12.6-2.4-12.1-6.4c5.7-23.6,18.9-42.1,31.3-62.7c13.6-22.5,15.6-35.7,3.2-59.6
			c-2.6-3.9,0.1-5.9,7.8-5.9L551.2,391.9z"/>
		<path class="st8" d="M687.1,430.7c0.7-3.7-3.5-5.5-11.6-5.6c-19.2-0.1-38.3-0.1-57.5-0.2c-7.9,0-12.4-2.1-13.2-5.6
			c-1.7-8.4-3.6-12.6-11.4-21.5c-3.5-4-1.5-6,6.2-6l204.6-0.4c7.9,0,14.8,2.1,18.8,6.3c8.9,9.4,10.7,13.8,11.4,22.4
			c0.3,3.6-3.9,5.7-11.7,5.7l-54.3-0.3c-7.4,0-11.7,1.8-12.8,5.5c-14,31.4-49.2,51.8-42.7,89.4c1.5,4.2-1,6.7-9.4,6.7l-46.8-0.1
			c-8,0-13.7-2.5-14.6-6.7C640.7,482.9,674.2,462.9,687.1,430.7z"/>
		<path class="st8" d="M973.2,441c-8,0.7-10.3-1-9.8-4.8c-1.3-12.9-21.2-12.7-29.7-13c-14.3-0.6-24.4,4.3-24.2,8.7
			c6.4,12.9,41.9,14.7,54,18.3c20.6,6.1,42.9,15.7,37.8,39.2c-7.9,36.7-56.8,41.8-89.3,41.8c-17.2,0-131.1-3.5-116.8-45.2
			c1.2-3.5,6-5.5,13.5-6.2c15.5-1.4,31-2.9,46.5-4.3c8.2-0.7,10.5,1.3,9.5,4.9c-3.1,11.4,21,15,29.5,14.8
			c9.5-0.2,28.5,0.1,33.2-10.5c-6.8-13.8-40.1-14.2-53-17.9c-20-5.6-40.2-13-33.8-37.4c9.2-35.7,41.6-41.7,74.2-41.9
			c21.1-0.1,121.3,2.1,116.4,42.8c-0.7,3.5-5.1,5.6-12.3,6.3C1003.6,438.2,988.4,439.6,973.2,441z"/>
		<path class="st8" d="M1356.2,485.5c14.2,44.4-38.4,47.3-69.6,47.5c-22.1,0.2-147.1-3.1-140.6-48.6c4.2-17,15.3-31.6,23.7-46.7
			c20.3-40.4,52.8-51.5,96.4-51.7c24.6-0.1,114.6,3.9,99.8,51.3C1362.4,453.3,1357,469,1356.2,485.5z M1293.9,447.9
			c8-19-4.2-24.8-22.5-24.5c-19.4,0.3-31.8,6.8-40.2,24.6c-4.5,8.7-9.2,17.7-12.5,27c-10.1,20.7,21.8,23.9,34.1,23.6
			c22.7-0.6,25.9-3.2,31.2-23.4C1286.6,465.9,1290.3,456.8,1293.9,447.9L1293.9,447.9z"/>
		<path class="st8" d="M1586.1,388.6c8,0,12.5,2,13.6,6c2.5,9.1,3.7,13.6,6.2,22.7c1,3.9-2.6,6.2-11.2,6.3
			c-35.2,0.6-70.5,1.1-105.7,1.6c-7.8,0.1-12.4,2.2-12.7,6.3c-0.2,2.6-0.4,4-0.5,6.5c0,3.8,4.6,5.9,12.7,5.8
			c23.9-0.3,47.9-0.6,71.8-1c8.8-0.1,13.7,1.8,14.4,5.8c1.7,9,2.5,13.5,4.3,22.5c0.8,3.8-3.6,6.1-13.1,6.1
			c-25.6,0.2-51.2,0.3-76.9,0.4c-8.7,0-13.7,2-13.3,6c4.1,14.6,12.7,28.4,21.9,40.3c3,3.8,0.7,6-7.8,6l-50.6-0.2
			c-8.1,0-15.5-2.3-19.2-6.1c-17.4-20.2-26.1-35.6-22-62.4c3.4-22.4,8.8-42.4,6.6-65.2c-0.8-4.4,2.8-6.6,10.3-6.6
			C1472.1,389.2,1529.1,389,1586.1,388.6z"/>
	</g>
</g>
</svg>
