<svg xmlns="http://www.w3.org/2000/svg" xmlns:xlink="http://www.w3.org/1999/xlink" viewBox="0 0 1869.54 925.57"><defs><style>.cls-1{fill:url(#linear-gradient);}.cls-2{fill:url(#linear-gradient-2);}.cls-3{fill:url(#linear-gradient-3);}.cls-4{fill:url(#linear-gradient-4);}.cls-5{fill:url(#linear-gradient-5);}.cls-6{fill:url(#linear-gradient-6);}.cls-7{fill:url(#linear-gradient-7);}.cls-8{fill:url(#linear-gradient-8);}.cls-9{fill:#e43300;}</style><linearGradient id="linear-gradient" x1="156.4" y1="884.06" x2="156.4" y2="31.9" gradientUnits="userSpaceOnUse"><stop offset="0.03" stop-color="#ff6472"/><stop offset="0.27" stop-color="#ff816c" stop-opacity="0.94"/><stop offset="0.73" stop-color="#ffad62" stop-opacity="0.84"/><stop offset="1" stop-color="#ffbd5e" stop-opacity="0.8"/></linearGradient><linearGradient id="linear-gradient-2" x1="333.35" y1="881.77" x2="333.35" y2="30.47" xlink:href="#linear-gradient"/><linearGradient id="linear-gradient-3" x1="605.09" y1="882.66" x2="605.09" y2="29.93" xlink:href="#linear-gradient"/><linearGradient id="linear-gradient-4" x1="806.92" y1="888.03" x2="806.92" y2="0" xlink:href="#linear-gradient"/><linearGradient id="linear-gradient-5" x1="1006.39" y1="916.69" x2="1006.39" y2="0.18" xlink:href="#linear-gradient"/><linearGradient id="linear-gradient-6" x1="1217.18" y1="925.57" x2="1217.18" y2="24.42" xlink:href="#linear-gradient"/><linearGradient id="linear-gradient-7" x1="1460.15" y1="906.97" x2="1460.15" y2="20.15" xlink:href="#linear-gradient"/><linearGradient id="linear-gradient-8" x1="1724.31" y1="911.18" x2="1724.31" y2="8.23" xlink:href="#linear-gradient"/></defs><g id="Layer_2" data-name="Layer 2"><g id="Layer_1-2" data-name="Layer 1"><path class="cls-1" d="M155.34,31.91c44.61-.72,78.76,35.75,101.27,70.31,36,55.31,64.92,139.44,53.77,205-12,70.63-34.22,143.74-71.6,206.15-22.9,38.24-55.33,74-101.5,81.21-9,1.46-13.54,2.21-22.7,3.77-14.91,4.11-18.08,27.81-19.64,40.09C85.76,706.66,78.07,775,73.08,843.64c-.59,9.7-.76,37.61-15,39.76q-23.53.3-47.06.66C-2,880.86-.27,857.81.61,847.82Q24.34,459.4,48,71c1-10.78,1-34.45,15-37.91Q109.16,32.41,155.34,31.91Zm15.41,360.48c40.09-3.25,45.81-48.82,49.9-81.36,3.83-30.57,1-77.71-39.27-75.8q-14.7.54-29.4,1.16c-15.34,1.07-16.69,24.67-16.29,35.75,0,30.07-3.08,59.42-6.38,89.29-1.36,9.08-3,34.8,12.35,33.71Q156.2,393.7,170.75,392.39Z"/><path class="cls-2" d="M343.6,30.47c15.53,2.38,25.67,26,31.07,38,35.39,80.32,64.47,175.59,43.1,263.09-21.5,88-52.24,173.88-77.4,260.87-2.06,8.32-11.38,34.4,1.36,38.35q42.48-3.16,85-5.13c12.49,3.35,3.09,32.73,1.77,39.72A701.39,701.39,0,0,0,416.3,831.67c.55,11.43,6.78,44.35-7.72,49.81q-81.48-.06-163,.29c-14.77-3.8-11.87-35.1-11.79-45.26,6.53-139.74,45.12-273.7,79.8-408.41,13-50.45,32.43-105.89,29-158.27C338.12,200.55,323.53,133.32,300,68c-2.52-7.28-15-33.32-2.58-37.31Z"/><path class="cls-3" d="M679.11,29.93c17.61,3.08,32.32,30.41,40.15,44.14C744.36,118.61,764.6,165.71,770,217c.38,8.32,3.23,30.9-9.58,32.83-31.93-2.48-63.86-5-95.81-7.15-12.71,1.51-11.6,21.85-12.33,31a257.07,257.07,0,0,1-4,33.09c-2.06,7.85-8.77,27.88,2.59,31.5q29.43,1.89,58.82,4.31c12,3.18,1.68,24.65-.59,30.73-16.8,38.2-36.37,75-55,112.33-4.93,10.12-12.79,28.66-25.6,31.11q-27.33-1.38-54.69-2.25c-12.88,1.57-20.49,22.65-24.06,32.73-4.77,12.63-9.4,25.31-13.61,38.14-2.42,8.33-12.11,32.45-.51,37.66,28.21,0,56.46-.17,84.63,1.53,11.67,4.46,4.2,31.29,3.14,39.11-7.52,56.35-4.52,111.19,6.39,166.92,2.12,10.36,14.63,45.83,1,52-57.32-1.21-114.7-.94-172-1.09-15.83-4-17-38.2-17.83-50.32a672.2,672.2,0,0,1,30.22-242.57C488.92,532,512.21,477.47,534.87,422.6c19.49-47.21,44-99,43.89-150.85-.12-72-23.08-138.69-57.08-201.47-3.06-5.59-23.57-35.12-12.31-40.29C566,29.94,622.53,30.19,679.11,29.93Z"/><path class="cls-4" d="M851,832.44c3.71,10.14,23.38,47.35,11.44,55.59l-46.16-1.13C798.36,882,790,851.26,785,836.1c-13.18-42.3-21.67-84.72-23.63-129-.36-9.47,2.43-35.54-9.74-40.35q-15.12-1.32-30.26-2.56c-13.57,3.55-12.33,28.54-12.85,39,.24,44.65,6.94,87.67,18.42,130.77,2.63,9.57,17.59,44.82,4.45,51q-23.1-.54-46.19-1c-18.81-5.81-24.43-43.15-28.24-59-19.29-96.77-12.51-193.06,26.84-283.94,31.4-72.5,75.93-138.71,101.27-213.87,22.23-65.91,15.2-137.38.08-203.88C779.15,97,742,.29,796.14,0c63.73-.34,118,78.48,142.07,128.69,31.64,66.09,40,148.84,12.39,217.93C920.79,420,875.14,485.56,845.08,558.8,809,646.65,820.46,745,851,832.44Zm42.89-492.83c5.79-16.42,23.45-78.36-10-81.29-28.13-2.46-33.16,57.73-39.17,75.4-13.83,37.54-31.87,72.83-50.8,108-3.8,7.65-15.2,24.08-6.22,30.88q14,1.71,28,3.53c12.72-2.45,21-19.22,26.37-29.27C861.08,411.88,879.42,376.81,893.87,339.61Z"/><path class="cls-5" d="M1091.5,369.8c-12.39,2-1.71-22.56-.28-28.4,4-16.07,13.89-80.69-12.75-82.69-17.53-1.31-26,41-28.46,53.75-7.35,38.19,8.46,71.55,14.46,109.1,11.86,74.32-23.47,148.08-29.12,221.08a595.49,595.49,0,0,0,5.28,138.16c4.31,27.78,38.94,137.77-16.63,135.87-62.47-2.14-116.8-77.83-142.6-127.22-28.64-54.84-41.31-119.28-29.58-178.61,2.47-12.49,5.52-28.62,18-35.62q23.7-10.74,47.61-21c12.69-1.62,1.94,23.74.71,28.4-5.2,19.65-12.14,86.49,19.2,89.87,23,2.48,30.8-44.9,32.72-61,4.58-38.12-12-66.93-19.54-103.72C935.74,436,980.93,362,992.46,293.55c8.1-48.08,10.2-97,7.43-146.15C998.32,119.58,973,.44,1023.67.18c58.07-.29,102.64,82.72,120.27,127.94a313.77,313.77,0,0,1,14.44,179.35c-2.84,13.26-7.55,30.09-19.39,38.33C1123.39,354.27,1107.5,362.1,1091.5,369.8Z"/><path class="cls-6" d="M1223,27.36c16.81,5.38,22.17,38.79,25,53.16,17.51,93.43,12.36,185.19-19.39,274.91-25,70.52-62.62,135.69-87.27,206.31-8.34,26.07-36.94,130.71,16.22,135.15,18.84,1.57,22.54-20.6,24.83-34.62,5.32-32.63,9.5-63.67,18.92-95.61,22.73-71.37,57.21-138.23,80.86-209.29,30.33-91.16,38.52-183.59,24.41-278.74-1.78-11.36-12.25-45.5.73-53.08l43.27-1.13c16.37,3.47,18.21,39.55,20,51.64,11.75,107.87-4.16,210-37.93,312.46-26,78.86-63.75,156-74.73,239-.31,56.38,8.4,111.85,21.94,166.47,6.07,24.49,49.6,133.61-4.7,131.55-34.49-1.31-68.63-25.67-94.4-46.94a370.6,370.6,0,0,1-82.89-96.13c-31.12-52.51-44.93-112.53-34.19-172.94,18.78-81.17,64.52-152,96.42-228.17,40.63-97,45.81-199,22.78-301.18-2.49-10.49-15.89-45-3.46-52.5Z"/><path class="cls-7" d="M1598.46,838.05c5.15,9.1,36.71,62.79,17.16,68.92q-24.88-.53-49.76-1.08c-9.07-3-15.53-11.17-20.82-18.81-54.54-75-102.2-154-133.45-241.56-1.36-3.32-3-5.55-4.4-5.58-7.45-.21-11.14-.32-18.49-.55-13.69,3-10.57,23.42-9.62,33.51,12.14,67.64,37.13,129.65,71.12,189.22,3.35,6,23.35,34.88,12.74,41.33l-48.42-1.22c-18.1-4.5-33-28.49-42.06-43.09-37.77-62.45-66.19-129.31-73.26-202.5-5.26-54.57,15.19-109.75,32.2-160.95,18.27-55,37.4-109.57,52.27-165.63a733.71,733.71,0,0,0,22.16-253.89c-.93-10.81-8.08-45.94,4.69-53.42q42.52-1.23,85-2.57c46.38-1.53,68.72,52.2,78.1,89.3,21,83,6.47,168.82-5.5,251.33-11.05,76.07-26,165.32-71.84,230-2.37,3.46-3.57,9.2-3.24,14.94,4.94,40.11,22.83,76.61,40.18,112.83C1552.89,759.54,1575.06,799.13,1598.46,838.05ZM1468.77,282.11c-13.53,5.49-17.33,30.44-20.56,42.6-7.29,29.9-14.67,59.8-22.66,89.52-1.94,8.71-9.29,30.42,3,34.58,8.37-.28,12.59-.43,21.1-.79,36.24-.66,42.4-54.63,47.53-80.45,2.59-13.05,26.41-92.92-9.23-87C1480.21,281.2,1476.38,281.51,1468.77,282.11Z"/><path class="cls-8" d="M1807.38,8.23c14,2.65,13.32,28.24,14.17,38.14l8.31,144.47c.29,12.26,2.84,35.74-11.91,41.55q-54.59,10.8-109.43,20.06c-14.29,4.58-15.29,31.12-16.16,42.52-1.19,14-2.77,28.06-3.39,42.12-.69,8.45-2.19,36,12.34,35q38.43-5.91,76.72-12.58c16.25-1.1,15.65,25.46,16.26,35.43q1.64,71.09,3.49,142.18c-.2,12.43.54,37.14-16.68,39.6q-44.38,3.64-88.83,6.54c-16.42,1.67-16.75,25.85-17.49,37.65-.57,12.8,2.21,25.82,4.06,38.44,1.36,12,6.68,35.08,22.22,35.71q69.75-1.68,139.43-5c17.61-.41,19.71,25.74,20.25,37.83l8.31,144.71c.24,9.76,3.58,36.07-11.15,38.6q-92.89-1.26-185.77-3.06c-15.52-3-25.1-26.54-30.19-39A994,994,0,0,1,1583,664c-10-57.86,1.48-118.69,8.72-176.55,17.71-141.54,42.25-282.76,39.85-425.84-.07-9.48-4.1-42.32,9.81-46.48Q1724.38,12,1807.38,8.23Z"/><path class="cls-9" d="M458.33,392.1c8.09,0,13.69,1.94,16,5.8,5.12,8.65,6.43,12.87,7.71,21.22.55,3.54-3.72,5.57-12.41,5.58q-55.85,0-111.68.25c-8.6,0-13.79,1.94-14.3,5.69a24.08,24.08,0,0,1-1.15,6c-1.29,3.59,3,5.63,11.66,5.57q37-.24,74.09-.39c8.83,0,12.37,1.82,10.49,5.53-4.22,8.33-6.67,12.47-11.29,20.84-2,3.55-7.29,5.64-15.8,5.71q-35.62.3-71.25.69c-8.33.1-14,2.05-15.48,5.84a388.13,388.13,0,0,0-15.57,39.9c-1.08,3.77-5.8,6-14.23,6l-49.78,0c-8,0-12.06-2.1-11-5.73q17.82-61.08,35.62-122.18c1.11-3.82,6.15-5.74,13.9-5.77Q371.07,392.3,458.33,392.1Z"/><path class="cls-9" d="M551.17,391.89c8.06,0,14.34,2,17.62,5.92,15.44,23.78,13,36.86-2.27,59.59-13.7,20.42-27.85,37.85-31.61,62.77,0,4.07-3.76,6.49-12.14,6.47l-46.1-.08c-8,0-12.65-2.39-12.13-6.4,5.68-23.63,18.94-42.12,31.33-62.66,13.59-22.54,15.59-35.68,3.16-59.63-2.58-3.88.1-5.86,7.77-5.88Z"/><path class="cls-9" d="M687.06,430.66c.69-3.67-3.47-5.55-11.63-5.58q-28.75-.12-57.52-.2c-7.87,0-12.44-2.06-13.16-5.61-1.71-8.37-3.62-12.62-11.44-21.47-3.49-3.95-1.47-6,6.18-6l204.63-.42c7.93,0,14.79,2.15,18.76,6.33,8.91,9.36,10.65,13.78,11.37,22.41.31,3.65-3.93,5.7-11.65,5.66l-54.3-.27c-7.4,0-11.72,1.82-12.75,5.52-14,31.43-49.22,51.75-42.7,89.37,1.55,4.18-1,6.69-9.37,6.66l-46.82-.12c-7.95,0-13.72-2.52-14.61-6.68C640.71,482.93,674.15,462.93,687.06,430.66Z"/><path class="cls-9" d="M973.2,441.05c-8,.68-10.28-1-9.82-4.75-1.29-12.86-21.16-12.68-29.7-13-14.32-.6-24.36,4.33-24.17,8.69,6.4,12.94,41.87,14.69,54,18.27,20.57,6.08,42.86,15.73,37.84,39.16-7.87,36.72-56.82,41.8-89.27,41.77-17.24,0-131.09-3.51-116.83-45.22,1.25-3.45,6-5.49,13.46-6.18q23.25-2.16,46.5-4.28c8.17-.67,10.46,1.34,9.47,4.92-3.13,11.36,21,15,29.5,14.84,9.51-.16,28.53.09,33.2-10.51-6.8-13.75-40.07-14.23-53-17.88-20-5.61-40.16-13-33.85-37.4,9.25-35.71,41.6-41.67,74.16-41.88,21.14-.14,121.29,2.07,116.45,42.79-.74,3.5-5.14,5.57-12.27,6.29Q996,438.9,973.2,441.05Z"/><path class="cls-9" d="M1356.25,485.48c14.19,44.37-38.39,47.34-69.61,47.54-22.08.15-147.14-3.06-140.56-48.63,4.17-17,15.32-31.62,23.69-46.71,20.32-40.42,52.79-51.51,96.37-51.68,24.56-.1,114.61,3.89,99.81,51.28C1362.42,453.29,1357,469,1356.25,485.48Zm-62.37-37.62c8-19-4.22-24.79-22.47-24.52-19.4.29-31.83,6.82-40.18,24.56-4.5,8.74-9.22,17.73-12.5,27-10.07,20.67,21.84,23.94,34.14,23.62,22.69-.59,25.9-3.16,31.24-23.37C1286.58,465.89,1290.3,456.77,1293.88,447.86Z"/><path class="cls-9" d="M1586.09,388.65q12-.06,13.64,6c2.49,9.08,3.74,13.62,6.24,22.69,1,3.85-2.64,6.16-11.2,6.3q-52.86.9-105.71,1.58c-7.82.1-12.4,2.22-12.72,6.33-.2,2.62-.45,4-.46,6.51,0,3.77,4.6,5.89,12.74,5.8q35.89-.42,71.79-.95c8.84-.13,13.68,1.81,14.44,5.83,1.69,9,2.5,13.5,4.29,22.5.76,3.82-3.57,6.07-13.06,6.13q-38.43.25-76.88.41c-8.7,0-13.65,2-13.34,5.95,4.14,14.61,12.73,28.38,21.92,40.27,3,3.82.73,6-7.84,6l-50.55-.17c-8.14,0-15.46-2.3-19.25-6.13-17.43-20.17-26.12-35.63-22-62.35,3.44-22.37,8.8-42.43,6.62-65.25-.81-4.35,2.81-6.59,10.34-6.62Q1500.59,389.11,1586.09,388.65Z"/></g></g></svg>